<svg xmlns="http://www.w3.org/2000/svg" width="18.292" height="32.327" viewBox="0 0 18.292 32.327">
  <path id="Icon_metro-money" data-name="Icon metro-money" d="M20.538,20.615c-4.077-1.06-5.388-2.146-5.388-3.852,0-1.958,1.8-3.331,4.849-3.331,3.2,0,4.382,1.527,4.49,3.771h3.969a7.15,7.15,0,0,0-5.765-6.842V6.427H17.306v3.879c-3.484.763-6.286,3.008-6.286,6.483,0,4.149,3.439,6.214,8.441,7.417,4.5,1.078,5.388,2.649,5.388,4.337,0,1.23-.871,3.206-4.849,3.206-3.7,0-5.163-1.661-5.352-3.771h-3.96c.224,3.933,3.161,6.133,6.618,6.878v3.9h5.388V34.892c3.493-.673,6.286-2.694,6.286-6.385,0-5.082-4.364-6.825-8.441-7.893Z" transform="translate(-10.688 -6.427)" fill="#5454d4"/>
</svg>
