<svg xmlns="http://www.w3.org/2000/svg" width="32" height="32" viewBox="0 0 32 32">
  <path id="Send" d="M31.5.931A3.093,3.093,0,0,0,28.407.126L2.653,7.615A3.071,3.071,0,0,0,.439,10.049a3.605,3.605,0,0,0,1.6,3.365L10.1,18.363a2.087,2.087,0,0,0,2.575-.309l9.221-9.279a1.174,1.174,0,0,1,1.7,0,1.22,1.22,0,0,1,0,1.707l-9.237,9.28a2.118,2.118,0,0,0-.309,2.59l4.92,8.134A3.056,3.056,0,0,0,21.621,32a3.325,3.325,0,0,0,.4-.016,3.119,3.119,0,0,0,2.609-2.223L32.265,4.04A3.143,3.143,0,0,0,31.5.931" transform="translate(-0.4)" fill="#5454d4"/>
</svg>
