<svg xmlns="http://www.w3.org/2000/svg" width="27.2" height="32" viewBox="0 0 27.2 32">
  <path id="Shield" d="M13.565,31.862a1.221,1.221,0,0,0,.573.138,1.251,1.251,0,0,0,.573-.144L20.42,28.8A13.507,13.507,0,0,0,24.3,25.853a13.192,13.192,0,0,0,3.3-8.792L27.532,6.435a2.894,2.894,0,0,0-2-2.713L14.913.159A3.022,3.022,0,0,0,12.945.17L2.365,3.861A2.9,2.9,0,0,0,.4,6.6L.468,17.215a13.2,13.2,0,0,0,3.421,8.758A13.543,13.543,0,0,0,7.8,28.881ZM12.054,19.374a1.232,1.232,0,0,0,1.709-.011L20,13.213a1.155,1.155,0,0,0-.01-1.663,1.231,1.231,0,0,0-1.709.01l-5.39,5.312L10.686,14.75a1.231,1.231,0,0,0-1.709.011,1.154,1.154,0,0,0,.011,1.663Z" transform="translate(-0.4)" fill="#5454d4" fill-rule="evenodd"/>
</svg>
