<svg xmlns="http://www.w3.org/2000/svg" width="32.817" height="31.326" viewBox="0 0 32.817 31.326">
  <g id="icons_Q2" data-name="icons Q2" transform="translate(-2 -3)">
    <g id="Group_1" data-name="Group 1" transform="translate(2 3)">
      <path id="Path_1" data-name="Path 1" d="M33.325,25.375H27.359a1.492,1.492,0,0,0-1.492,1.492v1.492c-3.505-.3-5.892-2.61-5.892-5.892V15.754a9.7,9.7,0,0,0-9.025-9.7V4.492A1.492,1.492,0,0,0,9.458,3H3.492A1.492,1.492,0,0,0,2,4.492v5.967A1.492,1.492,0,0,0,3.492,11.95H9.458a1.492,1.492,0,0,0,1.492-1.492V9.041a6.713,6.713,0,0,1,6.041,6.713v6.713c0,4.923,3.729,8.5,8.876,8.876v1.492a1.492,1.492,0,0,0,1.492,1.492h5.967a1.492,1.492,0,0,0,1.492-1.492V26.867A1.492,1.492,0,0,0,33.325,25.375ZM7.967,8.967H4.983V5.983H7.967ZM31.834,31.342H28.85V28.359h2.983Z" transform="translate(-2 -3)" fill="#5454d4"/>
      <path id="Path_2" data-name="Path 2" d="M39.629,3H33.662A1.492,1.492,0,0,0,32.17,4.492V5.983A10.442,10.442,0,0,0,26.8,8.146a8.95,8.95,0,0,1,1.566,2.536,6.787,6.787,0,0,1,3.8-1.641v1.417a1.492,1.492,0,0,0,1.492,1.492h5.967a1.492,1.492,0,0,0,1.492-1.492V4.492A1.492,1.492,0,0,0,39.629,3ZM38.137,8.967H35.153V5.983h2.983Z" transform="translate(-8.303 -3)" fill="#5454d4"/>
      <path id="Path_3" data-name="Path 3" d="M14.754,34.193a6.414,6.414,0,0,1-3.8,1.715V34.492A1.492,1.492,0,0,0,9.458,33H3.492A1.492,1.492,0,0,0,2,34.492v5.967A1.492,1.492,0,0,0,3.492,41.95H9.458a1.492,1.492,0,0,0,1.492-1.492V38.967a9.994,9.994,0,0,0,5.445-2.312,10.889,10.889,0,0,1-1.641-2.461ZM7.967,38.967H4.983V35.983H7.967Z" transform="translate(-2 -10.625)" fill="#5454d4"/>
    </g>
  </g>
</svg>
