<svg xmlns="http://www.w3.org/2000/svg" width="84.007" height="84.007" viewBox="0 0 84.007 84.007">
  <g id="Group_29" data-name="Group 29" transform="translate(-914 -2550)">
    <path id="Path_13" data-name="Path 13" d="M608,132.007a42,42,0,1,0-42-42A42,42,0,0,0,608,132.007Z" transform="translate(348 2502)" fill="rgba(240,64,55,0.1)" fill-rule="evenodd"/>
    <path id="Path_84" data-name="Path 84" d="M54.515,14.911c-.545-.308-1.066-.639-1.681-.995.615-.379,1.184-.71,1.729-1.018A6.861,6.861,0,0,0,48,.847c-4.167,2.392-8.335,4.736-12.455,7.2-3.268,1.965-3.741,4.57-3.22,7.648A6.258,6.258,0,0,0,35.62,20c.592.332,1.16.663,1.8,1.042-.71.426-1.349.8-2.036,1.16A6.866,6.866,0,0,0,42.32,34.043c3.6-2.036,7.2-4.12,10.774-6.2a19.355,19.355,0,0,0,2.51-1.563A6.847,6.847,0,0,0,54.515,14.911ZM41.8,22.678V12.331l8.951,5.162Z" transform="translate(910.852 2575)" fill="#f04037"/>
  </g>
</svg>
