<svg xmlns="http://www.w3.org/2000/svg" width="32.004" height="30.402" viewBox="0 0 32.004 30.402">
  <path id="Star" d="M25.47,19.712a1.761,1.761,0,0,0-.51,1.552l1.422,7.872a1.728,1.728,0,0,1-.72,1.728,1.761,1.761,0,0,1-1.872.128L16.7,27.3a1.809,1.809,0,0,0-.8-.21H15.47a1.3,1.3,0,0,0-.432.144L7.95,30.944a1.869,1.869,0,0,1-1.136.176A1.778,1.778,0,0,1,5.39,29.087l1.424-7.872a1.79,1.79,0,0,0-.51-1.566l-5.778-5.6A1.727,1.727,0,0,1,.1,12.24a1.8,1.8,0,0,1,1.422-1.2L9.47,9.887a1.779,1.779,0,0,0,1.408-.974l3.5-7.184A1.665,1.665,0,0,1,14.7,1.3l.144-.112A1.074,1.074,0,0,1,15.1.976l.174-.064L15.55.8h.674a1.79,1.79,0,0,1,1.408.96l3.55,7.152a1.778,1.778,0,0,0,1.328.974l7.952,1.154a1.814,1.814,0,0,1,1.456,1.2,1.738,1.738,0,0,1-.464,1.808Z" transform="translate(0.001 -0.8)" fill="#5454d4"/>
</svg>
