<svg xmlns="http://www.w3.org/2000/svg" width="84.007" height="84.007" viewBox="0 0 84.007 84.007">
  <g id="Group_30" data-name="Group 30" transform="translate(-417.675 -2550)">
    <path id="Path_26" data-name="Path 26" d="M200,132.007a42,42,0,1,0-42-42A42,42,0,0,0,200,132.007Z" transform="translate(259.675 2502)" fill="rgba(84,84,212,0.1)" fill-rule="evenodd"/>
    <path id="Icon_simple-tiktok" data-name="Icon simple-tiktok" d="M16.1.025C17.74,0,19.369.013,21,0a7.929,7.929,0,0,0,2.194,5.281,8.8,8.8,0,0,0,5.316,2.267v5.1a13.307,13.307,0,0,1-5.265-1.228,15.451,15.451,0,0,1-2.031-1.178c-.013,3.7.013,7.4-.025,11.081a9.738,9.738,0,0,1-1.692,4.99,9.316,9.316,0,0,1-7.409,4.065,9.069,9.069,0,0,1-5.115-1.3,9.559,9.559,0,0,1-4.576-7.231c-.025-.633-.038-1.266-.013-1.887a9.536,9.536,0,0,1,3.234-6.281,9.266,9.266,0,0,1,7.71-2.178c.025,1.874-.05,3.749-.05,5.623a4.294,4.294,0,0,0-5.491,2.685,5.073,5.073,0,0,0-.176,2.039A4.278,4.278,0,0,0,12,25.48a4.2,4.2,0,0,0,3.473-2.039,2.94,2.94,0,0,0,.514-1.342c.125-2.267.075-4.521.088-6.788.013-5.1-.013-10.195.025-15.286Z" transform="translate(444.24 2576.806)" fill="#5454d4"/>
  </g>
</svg>
